<?xml version="1.0" encoding="utf-8"?>
<!-- Generator: Adobe Illustrator 27.6.1, SVG Export Plug-In . SVG Version: 6.00 Build 0)  -->
<svg version="1.1" id="Camada_1" xmlns="http://www.w3.org/2000/svg" xmlns:xlink="http://www.w3.org/1999/xlink" x="0px" y="0px"
	 viewBox="0 0 141.73 133.23" style="enable-background:new 0 0 141.73 133.23;" xml:space="preserve">
<g>
	<path d="M69.78,9.11c-31.92,0-57.9,25.98-57.9,57.9c0,31.94,25.98,57.9,57.91,57.9c31.93,0,57.9-25.96,57.9-57.9
		C127.69,35.09,101.71,9.11,69.78,9.11L69.78,9.11z M53.95,56l0.12-0.13c0.47-0.34,0.7-0.87,0.61-1.43
		c-1.17-7.02-0.4-9.95-0.14-10.68c2.03-6.25,8.39-9.24,9.68-9.66c1.83-0.59,6.66-0.79,12.74,1.53c4.59,1.74,6.67,4.25,7.07,4.77
		c3.77,4.26,2.76,10.71,1.83,14.16c-0.11,0.41-0.05,0.83,0.18,1.18L86.26,56c0.28,0.37,0.52,1.79-0.3,4.84
		c-0.16,0.92-0.49,1.67-1,2.18c-0.19,0.21-0.31,0.46-0.36,0.76c-1.28,7.45-7.96,15.81-15,15.81c-5.99,0-12.8-7.68-14.03-15.81
		c-0.05-0.3-0.17-0.56-0.39-0.79c-0.52-0.53-0.84-1.29-1.04-2.42C53.56,58.44,53.5,56.71,53.95,56L53.95,56z M40.54,88.36
		c0.24-0.34,1.7-2.02,4.62-3.13c10.38-3.09,14.57-7.54,14.57-7.54l0.34,0.3c3.05,2.89,6.44,4.48,9.53,4.48
		c3.24,0,6.58-1.41,9.68-4.07l0.24-0.21c0,0,6.67,4.52,12.07,6.06c5.2,1.48,7.25,3.82,7.38,4c4,5.44,5.23,16.04,5.76,21.86
		c-9.85,8.01-22.25,12.41-34.93,12.41c-12.68,0-25.08-4.41-34.95-12.41C35.37,104.3,36.6,93.75,40.54,88.36L40.54,88.36z
		 M101.38,86.65l-0.19-0.24c-0.94-1.17-2.99-2.89-6.02-3.97c-10.3-3.67-13.06-6.75-13.06-6.75l0.14-0.36
		c2.58-3.22,4.38-6.95,5.07-10.49l0.1-0.2c0.72-0.9,1.18-1.98,1.36-3.16c0.82-2.95,0.86-5.12,0.11-6.63l-0.06-0.16l0.04-0.17
		c0.92-3.82,1.79-11-2.6-15.98c-0.69-0.87-3.48-3.44-8.61-5.38c-5.27-2-10.04-2.88-14.44-1.53c-1.53,0.47-9.01,3.87-11.37,11.19
		c-0.4,1.04-1.21,4.2-0.17,11.14l0.04,0.19l-0.12,0.16c-1.06,1.43-1.14,3.75-0.25,6.87c0.22,1.38,0.68,2.48,1.33,3.32l0.12,0.24
		c0.65,3.63,2.27,7.2,4.66,10.36l0.22,0.28c0,0-2.59,3.93-13.43,7.13c-4.25,1.61-5.01,2.66-6.06,4.18
		c-3.64,5.31-5.25,14.34-6.01,21.14c-11.39-10.5-17.9-25.34-17.9-40.79c0-30.6,24.89-55.5,55.5-55.5s55.52,24.9,55.52,55.5
		c0,15.45-6.53,30.3-17.92,40.81C106.6,100.97,104.94,91.94,101.38,86.65L101.38,86.65z M101.38,86.65"/>
</g>
</svg>
